<?xml version="1.0" encoding="UTF-8" standalone="no"?>
<!DOCTYPE svg PUBLIC "-//W3C//DTD SVG 1.1//EN"
 "http://www.w3.org/Graphics/SVG/1.1/DTD/svg11.dtd">
<!-- Generated by graphviz version 15.1.0 (20260618.0150)
 -->
<!-- Pages: 1 -->
<svg width="1344pt" height="238pt"
 viewBox="0.00 0.00 1344.00 238.00" xmlns="http://www.w3.org/2000/svg" xmlns:xlink="http://www.w3.org/1999/xlink">
<g id="graph0" class="graph" transform="scale(1 1) rotate(0) translate(4 234)">
<polygon fill="white" stroke="none" points="-4,4 -4,-234 1340,-234 1340,4 -4,4"/>
<!-- 2524757395456 -->
<g id="node1" class="node">
<title>2524757395456</title>
<polygon fill="none" stroke="black" points="589.75,-55.5 589.75,-91.5 750.75,-91.5 750.75,-55.5 589.75,-55.5"/>
<text xml:space="preserve" text-anchor="middle" x="629.62" y="-68.7" font-family="Times New Roman,serif" font-size="14.00">data 0.8398</text>
<polyline fill="none" stroke="black" points="669.5,-56 669.5,-91.5"/>
<text xml:space="preserve" text-anchor="middle" x="710.12" y="-68.7" font-family="Times New Roman,serif" font-size="14.00">grad 0.9982</text>
</g>
<!-- 2524757395648+ -->
<g id="node7" class="node">
<title>2524757395648+</title>
<ellipse fill="none" stroke="black" cx="816" cy="-100.5" rx="27" ry="18"/>
<text xml:space="preserve" text-anchor="middle" x="816" y="-95.45" font-family="Times New Roman,serif" font-size="14.00">+</text>
</g>
<!-- 2524757395456&#45;&gt;2524757395648+ -->
<g id="edge9" class="edge">
<title>2524757395456&#45;&gt;2524757395648+</title>
<path fill="none" stroke="black" d="M751.11,-88.5C760.6,-90.28 769.9,-92.03 778.34,-93.61"/>
<polygon fill="black" stroke="black" points="777.66,-97.05 788.14,-95.45 778.96,-90.17 777.66,-97.05"/>
</g>
<!-- 2524757395456* -->
<g id="node2" class="node">
<title>2524757395456*</title>
<ellipse fill="none" stroke="black" cx="524.5" cy="-73.5" rx="27" ry="18"/>
<text xml:space="preserve" text-anchor="middle" x="524.5" y="-68.45" font-family="Times New Roman,serif" font-size="14.00">*</text>
</g>
<!-- 2524757395456*&#45;&gt;2524757395456 -->
<g id="edge1" class="edge">
<title>2524757395456*&#45;&gt;2524757395456</title>
<path fill="none" stroke="black" d="M551.87,-73.5C559.67,-73.5 568.7,-73.5 578.2,-73.5"/>
<polygon fill="black" stroke="black" points="578.02,-77 588.02,-73.5 578.02,-70 578.02,-77"/>
</g>
<!-- 2524725793936 -->
<g id="node3" class="node">
<title>2524725793936</title>
<polygon fill="none" stroke="black" points="291.5,-55.5 291.5,-91.5 461.5,-91.5 461.5,-55.5 291.5,-55.5"/>
<text xml:space="preserve" text-anchor="middle" x="333.62" y="-68.7" font-family="Times New Roman,serif" font-size="14.00">data &#45;2.0000</text>
<polyline fill="none" stroke="black" points="375.75,-56 375.75,-91.5"/>
<text xml:space="preserve" text-anchor="middle" x="418.62" y="-68.7" font-family="Times New Roman,serif" font-size="14.00">grad &#45;0.4191</text>
</g>
<!-- 2524725793936&#45;&gt;2524757395456* -->
<g id="edge8" class="edge">
<title>2524725793936&#45;&gt;2524757395456*</title>
<path fill="none" stroke="black" d="M461.58,-73.5C470.07,-73.5 478.35,-73.5 485.95,-73.5"/>
<polygon fill="black" stroke="black" points="485.76,-77 495.76,-73.5 485.76,-70 485.76,-77"/>
</g>
<!-- 2524757395120 -->
<g id="node4" class="node">
<title>2524757395120</title>
<polygon fill="none" stroke="black" points="293.75,-165.5 293.75,-201.5 459.25,-201.5 459.25,-165.5 293.75,-165.5"/>
<text xml:space="preserve" text-anchor="middle" x="335.88" y="-178.7" font-family="Times New Roman,serif" font-size="14.00">data &#45;0.8823</text>
<polyline fill="none" stroke="black" points="378,-166 378,-201.5"/>
<text xml:space="preserve" text-anchor="middle" x="418.62" y="-178.7" font-family="Times New Roman,serif" font-size="14.00">grad 0.9982</text>
</g>
<!-- 2524757395264+ -->
<g id="node12" class="node">
<title>2524757395264+</title>
<ellipse fill="none" stroke="black" cx="524.5" cy="-128.5" rx="27" ry="18"/>
<text xml:space="preserve" text-anchor="middle" x="524.5" y="-123.45" font-family="Times New Roman,serif" font-size="14.00">+</text>
</g>
<!-- 2524757395120&#45;&gt;2524757395264+ -->
<g id="edge13" class="edge">
<title>2524757395120&#45;&gt;2524757395264+</title>
<path fill="none" stroke="black" d="M437.45,-165.15C445.58,-162.39 453.78,-159.47 461.5,-156.5 471.43,-152.68 482.05,-148.08 491.64,-143.72"/>
<polygon fill="black" stroke="black" points="492.96,-146.96 500.57,-139.59 490.03,-140.61 492.96,-146.96"/>
</g>
<!-- 2524757395120* -->
<g id="node5" class="node">
<title>2524757395120*</title>
<ellipse fill="none" stroke="black" cx="228.5" cy="-183.5" rx="27" ry="18"/>
<text xml:space="preserve" text-anchor="middle" x="228.5" y="-178.45" font-family="Times New Roman,serif" font-size="14.00">*</text>
</g>
<!-- 2524757395120*&#45;&gt;2524757395120 -->
<g id="edge2" class="edge">
<title>2524757395120*&#45;&gt;2524757395120</title>
<path fill="none" stroke="black" d="M255.94,-183.5C263.68,-183.5 272.61,-183.5 282.04,-183.5"/>
<polygon fill="black" stroke="black" points="281.78,-187 291.78,-183.5 281.78,-180 281.78,-187"/>
</g>
<!-- 2524757395648 -->
<g id="node6" class="node">
<title>2524757395648</title>
<polygon fill="none" stroke="black" points="879,-82.5 879,-118.5 1044.5,-118.5 1044.5,-82.5 879,-82.5"/>
<text xml:space="preserve" text-anchor="middle" x="921.12" y="-95.7" font-family="Times New Roman,serif" font-size="14.00">data &#45;0.0425</text>
<polyline fill="none" stroke="black" points="963.25,-83 963.25,-118.5"/>
<text xml:space="preserve" text-anchor="middle" x="1003.88" y="-95.7" font-family="Times New Roman,serif" font-size="14.00">grad 0.9982</text>
</g>
<!-- 2524757395744tanh -->
<g id="node9" class="node">
<title>2524757395744tanh</title>
<ellipse fill="none" stroke="black" cx="1107.5" cy="-100.5" rx="27" ry="18"/>
<text xml:space="preserve" text-anchor="middle" x="1107.5" y="-95.45" font-family="Times New Roman,serif" font-size="14.00">tanh</text>
</g>
<!-- 2524757395648&#45;&gt;2524757395744tanh -->
<g id="edge12" class="edge">
<title>2524757395648&#45;&gt;2524757395744tanh</title>
<path fill="none" stroke="black" d="M1044.7,-100.5C1053.14,-100.5 1061.4,-100.5 1068.98,-100.5"/>
<polygon fill="black" stroke="black" points="1068.77,-104 1078.77,-100.5 1068.77,-97 1068.77,-104"/>
</g>
<!-- 2524757395648+&#45;&gt;2524757395648 -->
<g id="edge3" class="edge">
<title>2524757395648+&#45;&gt;2524757395648</title>
<path fill="none" stroke="black" d="M843.37,-100.5C850.47,-100.5 858.57,-100.5 867.14,-100.5"/>
<polygon fill="black" stroke="black" points="867.09,-104 877.09,-100.5 867.09,-97 867.09,-104"/>
</g>
<!-- 2524757395744 -->
<g id="node8" class="node">
<title>2524757395744</title>
<polygon fill="none" stroke="black" points="1170.5,-82.5 1170.5,-118.5 1336,-118.5 1336,-82.5 1170.5,-82.5"/>
<text xml:space="preserve" text-anchor="middle" x="1212.62" y="-95.7" font-family="Times New Roman,serif" font-size="14.00">data &#45;0.0425</text>
<polyline fill="none" stroke="black" points="1254.75,-83 1254.75,-118.5"/>
<text xml:space="preserve" text-anchor="middle" x="1295.38" y="-95.7" font-family="Times New Roman,serif" font-size="14.00">grad 1.0000</text>
</g>
<!-- 2524757395744tanh&#45;&gt;2524757395744 -->
<g id="edge4" class="edge">
<title>2524757395744tanh&#45;&gt;2524757395744</title>
<path fill="none" stroke="black" d="M1134.87,-100.5C1141.97,-100.5 1150.07,-100.5 1158.64,-100.5"/>
<polygon fill="black" stroke="black" points="1158.59,-104 1168.59,-100.5 1158.59,-97 1158.59,-104"/>
</g>
<!-- 2524725793072 -->
<g id="node10" class="node">
<title>2524725793072</title>
<polygon fill="none" stroke="black" points="0,-193.5 0,-229.5 165.5,-229.5 165.5,-193.5 0,-193.5"/>
<text xml:space="preserve" text-anchor="middle" x="39.88" y="-206.7" font-family="Times New Roman,serif" font-size="14.00">data 1.0000</text>
<polyline fill="none" stroke="black" points="79.75,-194 79.75,-229.5"/>
<text xml:space="preserve" text-anchor="middle" x="122.62" y="-206.7" font-family="Times New Roman,serif" font-size="14.00">grad &#45;0.8807</text>
</g>
<!-- 2524725793072&#45;&gt;2524757395120* -->
<g id="edge14" class="edge">
<title>2524725793072&#45;&gt;2524757395120*</title>
<path fill="none" stroke="black" d="M165.7,-195.54C174.5,-193.82 183.08,-192.15 190.92,-190.62"/>
<polygon fill="black" stroke="black" points="191.55,-194.07 200.7,-188.72 190.21,-187.2 191.55,-194.07"/>
</g>
<!-- 2524757395264 -->
<g id="node11" class="node">
<title>2524757395264</title>
<polygon fill="none" stroke="black" points="587.5,-110.5 587.5,-146.5 753,-146.5 753,-110.5 587.5,-110.5"/>
<text xml:space="preserve" text-anchor="middle" x="629.62" y="-123.7" font-family="Times New Roman,serif" font-size="14.00">data &#45;0.8823</text>
<polyline fill="none" stroke="black" points="671.75,-111 671.75,-146.5"/>
<text xml:space="preserve" text-anchor="middle" x="712.38" y="-123.7" font-family="Times New Roman,serif" font-size="14.00">grad 0.9982</text>
</g>
<!-- 2524757395264&#45;&gt;2524757395648+ -->
<g id="edge7" class="edge">
<title>2524757395264&#45;&gt;2524757395648+</title>
<path fill="none" stroke="black" d="M753.2,-112.54C762,-110.82 770.58,-109.15 778.42,-107.62"/>
<polygon fill="black" stroke="black" points="779.05,-111.07 788.2,-105.72 777.71,-104.2 779.05,-111.07"/>
</g>
<!-- 2524757395264+&#45;&gt;2524757395264 -->
<g id="edge5" class="edge">
<title>2524757395264+&#45;&gt;2524757395264</title>
<path fill="none" stroke="black" d="M551.87,-128.5C558.97,-128.5 567.07,-128.5 575.64,-128.5"/>
<polygon fill="black" stroke="black" points="575.59,-132 585.59,-128.5 575.59,-125 575.59,-132"/>
</g>
<!-- 2524725407056 -->
<g id="node13" class="node">
<title>2524725407056</title>
<polygon fill="none" stroke="black" points="291.5,-0.5 291.5,-36.5 461.5,-36.5 461.5,-0.5 291.5,-0.5"/>
<text xml:space="preserve" text-anchor="middle" x="333.62" y="-13.7" font-family="Times New Roman,serif" font-size="14.00">data &#45;0.4199</text>
<polyline fill="none" stroke="black" points="375.75,-1 375.75,-36.5"/>
<text xml:space="preserve" text-anchor="middle" x="418.62" y="-13.7" font-family="Times New Roman,serif" font-size="14.00">grad &#45;1.9964</text>
</g>
<!-- 2524725407056&#45;&gt;2524757395456* -->
<g id="edge6" class="edge">
<title>2524725407056&#45;&gt;2524757395456*</title>
<path fill="none" stroke="black" d="M435.13,-36.95C444.01,-40.01 453.03,-43.25 461.5,-46.5 471.3,-50.26 481.81,-54.68 491.34,-58.85"/>
<polygon fill="black" stroke="black" points="489.66,-61.93 500.22,-62.78 492.49,-55.53 489.66,-61.93"/>
</g>
<!-- 2524722461008 -->
<g id="node14" class="node">
<title>2524722461008</title>
<polygon fill="none" stroke="black" points="296,-110.5 296,-146.5 457,-146.5 457,-110.5 296,-110.5"/>
<text xml:space="preserve" text-anchor="middle" x="335.88" y="-123.7" font-family="Times New Roman,serif" font-size="14.00">data 0.0000</text>
<polyline fill="none" stroke="black" points="375.75,-111 375.75,-146.5"/>
<text xml:space="preserve" text-anchor="middle" x="416.38" y="-123.7" font-family="Times New Roman,serif" font-size="14.00">grad 0.9982</text>
</g>
<!-- 2524722461008&#45;&gt;2524757395264+ -->
<g id="edge11" class="edge">
<title>2524722461008&#45;&gt;2524757395264+</title>
<path fill="none" stroke="black" d="M457.33,-128.5C467.22,-128.5 476.94,-128.5 485.75,-128.5"/>
<polygon fill="black" stroke="black" points="485.63,-132 495.63,-128.5 485.63,-125 485.63,-132"/>
</g>
<!-- 2524725407104 -->
<g id="node15" class="node">
<title>2524725407104</title>
<polygon fill="none" stroke="black" points="0,-138.5 0,-174.5 165.5,-174.5 165.5,-138.5 0,-138.5"/>
<text xml:space="preserve" text-anchor="middle" x="42.12" y="-151.7" font-family="Times New Roman,serif" font-size="14.00">data &#45;0.8823</text>
<polyline fill="none" stroke="black" points="84.25,-139 84.25,-174.5"/>
<text xml:space="preserve" text-anchor="middle" x="124.88" y="-151.7" font-family="Times New Roman,serif" font-size="14.00">grad 0.9982</text>
</g>
<!-- 2524725407104&#45;&gt;2524757395120* -->
<g id="edge10" class="edge">
<title>2524725407104&#45;&gt;2524757395120*</title>
<path fill="none" stroke="black" d="M165.7,-171.89C174.5,-173.54 183.08,-175.16 190.92,-176.63"/>
<polygon fill="black" stroke="black" points="190.22,-180.06 200.7,-178.47 191.51,-173.18 190.22,-180.06"/>
</g>
</g>
</svg>
